<?xml version="1.0" standalone="no"?>
<!DOCTYPE svg PUBLIC "-//W3C//DTD SVG 20010904//EN"
 "http://www.w3.org/TR/2001/REC-SVG-20010904/DTD/svg10.dtd">
<svg version="1.0" xmlns="http://www.w3.org/2000/svg"
 width="1349.000000pt" height="1349.000000pt" viewBox="0 0 1349.000000 1349.000000"
 preserveAspectRatio="xMidYMid meet">
<metadata>
Created by potrace 1.14, written by Peter Selinger 2001-2017
</metadata>
<g transform="translate(0.000000,1349.000000) scale(0.100000,-0.100000)"
fill="#000000" stroke="none">
<path d="M885 8490 c-33 -16 -56 -29 -52 -29 4 -1 -3 -11 -17 -23 -23 -22
-111 -181 -111 -203 0 -5 -3 -12 -6 -15 -11 -8 -99 -238 -140 -363 -21 -64
-49 -168 -63 -230 -22 -96 -32 -150 -61 -327 -4 -23 -10 -80 -20 -205 -5 -60
-6 -427 -1 -470 2 -16 7 -68 11 -115 4 -47 9 -89 12 -93 3 -4 6 -27 8 -50 2
-23 6 -55 9 -72 3 -16 8 -46 11 -65 4 -19 8 -39 9 -45 2 -5 6 -28 10 -50 4
-22 10 -47 13 -55 3 -8 8 -24 10 -35 29 -151 163 -510 265 -710 45 -87 125
-140 212 -140 70 0 347 35 398 51 9 3 25 7 35 9 143 29 348 89 492 144 149 57
385 168 433 203 18 14 41 28 51 31 23 8 257 160 291 189 6 5 40 30 76 56 35
26 73 56 85 67 11 11 46 42 77 68 99 84 303 294 365 376 7 9 43 55 80 103 97
125 172 232 188 273 23 53 19 146 -7 200 -12 25 -26 45 -30 45 -4 0 -8 5 -8
10 0 16 -155 225 -248 335 -250 293 -582 570 -872 726 -25 13 -47 26 -50 29
-8 9 -275 138 -331 161 -123 49 -304 111 -389 133 -14 4 -61 16 -104 27 -44
11 -91 22 -105 24 -14 3 -44 9 -67 14 -23 6 -56 13 -75 15 -19 3 -50 7 -69 10
-196 29 -245 29 -315 -4z m763 -1231 c46 -22 88 -39 92 -39 5 0 10 -3 12 -7 2
-5 27 -19 56 -32 28 -14 52 -27 52 -31 0 -3 16 -12 35 -20 19 -8 35 -17 35
-22 0 -4 6 -8 13 -8 7 0 23 -9 35 -20 12 -11 26 -20 32 -20 5 0 10 -3 10 -7 0
-5 18 -19 40 -33 22 -13 40 -28 40 -32 0 -4 5 -8 10 -8 6 0 18 -8 28 -17 10
-10 42 -38 71 -62 l52 -45 -39 -35 c-22 -20 -54 -47 -72 -61 -18 -14 -38 -29
-44 -35 -30 -26 -190 -135 -243 -165 -24 -13 -43 -28 -43 -34 0 -5 -3 -7 -6
-4 -3 3 -60 -20 -127 -52 -177 -84 -162 -85 -177 7 -7 43 -14 87 -16 98 -23
140 -17 494 12 640 6 29 10 57 13 83 1 17 22 11 129 -39z"/>
<path d="M7181 7842 c-8 -3 -11 -201 -11 -680 0 -654 -1 -678 -20 -709 -13
-22 -31 -35 -57 -42 -59 -15 -591 -11 -630 4 -56 23 -61 45 -62 303 -1 193 2
239 15 264 28 54 55 58 357 58 l274 0 -1 139 c-1 77 -4 142 -7 146 -8 8 -512
8 -564 0 -116 -18 -185 -52 -256 -125 -40 -41 -76 -99 -84 -134 -1 -6 -6 -22
-12 -35 -12 -31 -9 -574 5 -623 10 -37 43 -108 62 -131 52 -65 78 -88 134
-116 35 -18 76 -34 90 -34 14 -1 26 -5 26 -8 0 -7 678 -4 705 4 57 15 135 50
135 59 0 5 4 8 10 8 16 0 59 41 95 90 37 51 61 114 70 186 7 65 8 1365 0 1373
-7 6 -256 9 -274 3z"/>
<path d="M7756 7835 c-9 -9 -14 -188 -7 -248 1 -4 65 -6 144 -5 l142 3 1 120
c0 66 -1 125 -3 130 -5 15 -262 14 -277 0z"/>
<path d="M4892 7719 c-63 -8 -149 -30 -200 -51 -15 -6 -29 -12 -32 -13 -26 -9
-55 -25 -110 -60 -171 -111 -286 -282 -332 -495 -7 -37 -12 -208 -13 -517 -2
-417 0 -463 14 -467 9 -2 73 -4 144 -4 l127 1 1 26 c0 14 1 104 2 199 l0 172
516 -2 516 -3 1 -185 c1 -102 2 -190 3 -196 1 -12 280 -17 282 -5 1 3 2 339 2
746 2 821 5 787 -64 836 l-34 24 -380 1 c-209 1 -408 -2 -443 -7z m623 -291
c13 -8 15 -596 3 -614 -5 -8 -148 -11 -495 -12 -269 0 -498 1 -509 4 -20 4
-21 8 -18 121 6 244 97 383 304 466 36 14 85 28 110 32 25 4 46 7 47 8 5 6
550 0 558 -5z"/>
<path d="M7858 7332 c-104 -3 -108 -4 -109 -25 -4 -86 -3 -1180 1 -1187 3 -4
68 -7 145 -6 l140 1 1 590 c1 325 0 597 -2 606 -6 21 -38 25 -176 21z"/>
<path d="M8508 7329 c-84 -5 -101 -9 -131 -32 -20 -15 -40 -41 -45 -59 -6 -20
-9 -250 -8 -578 l1 -545 143 -1 143 -1 -1 301 c-1 166 -1 374 -1 464 l1 163
280 -1 c307 -1 336 -6 402 -60 19 -16 46 -51 59 -77 23 -47 24 -52 25 -408 1
-198 3 -365 3 -371 1 -8 46 -11 144 -10 l142 1 0 375 c0 206 -3 391 -6 410
-10 53 -31 120 -39 120 -4 0 -7 6 -7 13 0 22 -50 92 -103 145 -49 47 -169 117
-218 127 -11 2 -35 7 -53 13 -19 5 -92 10 -164 11 -307 6 -476 6 -567 0z"/>
<path d="M10020 7330 l-105 -5 -2 -376 c-2 -352 -1 -382 18 -450 43 -156 130
-258 279 -331 101 -49 123 -51 540 -53 273 -2 401 1 415 9 42 23 76 61 84 96
10 39 10 1095 0 1104 -9 10 -257 8 -272 -1 -10 -6 -13 -105 -12 -463 l0 -455
-290 0 c-288 1 -290 1 -340 25 -32 16 -63 43 -87 74 -20 27 -36 52 -36 55 1 3
-2 22 -6 41 -4 19 -8 190 -9 380 l-2 345 -35 5 c-19 3 -82 3 -140 0z"/>
<path d="M11570 7332 c-93 -4 -96 -6 -53 -50 32 -33 120 -129 221 -241 13 -14
61 -66 106 -116 166 -180 159 -169 129 -197 -35 -31 -106 -108 -101 -108 2 0
-20 -26 -51 -58 -58 -59 -129 -136 -266 -287 -44 -49 -94 -104 -111 -122 -26
-26 -29 -33 -15 -37 9 -3 98 -4 199 -3 l183 2 40 45 c22 25 75 83 117 129 181
198 223 241 231 241 5 0 44 -39 87 -87 108 -118 117 -128 216 -235 l87 -95
195 0 c159 0 194 2 188 13 -4 7 -50 59 -102 115 -52 56 -111 120 -130 142 -19
22 -70 77 -112 121 -43 44 -78 83 -78 86 0 4 -15 20 -32 37 -18 17 -52 52 -75
78 l-43 48 21 28 c11 16 26 32 32 36 7 5 25 24 41 43 16 19 58 67 95 106 36
39 102 111 147 160 45 49 102 112 127 139 25 28 43 53 39 57 -8 7 -80 10 -256
9 l-119 -1 -51 -53 c-101 -105 -261 -280 -264 -288 -6 -16 -19 -10 -55 26 -19
19 -33 35 -31 35 2 0 -11 15 -29 34 -17 18 -70 75 -117 126 -47 51 -91 99 -98
106 -7 8 -25 14 -40 14 -15 1 -67 2 -117 3 -49 1 -119 1 -155 -1z"/>
</g>
</svg>
